<mxfile host="65bd71144e">
    <diagram id="48OBgp8QFrlcBwugOrAG" name="Page-1">
        <mxGraphModel dx="1284" dy="779" grid="1" gridSize="10" guides="1" tooltips="1" connect="1" arrows="1" fold="1" page="1" pageScale="1" pageWidth="850" pageHeight="1100" math="0" shadow="0">
            <root>
                <mxCell id="0"/>
                <mxCell id="1" parent="0"/>
                <mxCell id="2" value="&lt;font color=&quot;#ffffff&quot;&gt;EHR System API&lt;/font&gt;" style="whiteSpace=wrap;html=1;strokeColor=#FFFFFF;fillColor=#000066;" parent="1" vertex="1">
                    <mxGeometry x="40" y="40" width="180" height="30" as="geometry"/>
                </mxCell>
                <mxCell id="3" value="&lt;font color=&quot;#ffffff&quot;&gt;EHR System&lt;/font&gt;" style="whiteSpace=wrap;html=1;strokeColor=#FFFFFF;fillColor=#000000;" parent="1" vertex="1">
                    <mxGeometry x="40" y="72" width="180" height="70" as="geometry"/>
                </mxCell>
                <mxCell id="4" value="&lt;font color=&quot;#ffffff&quot;&gt;EHR System API&lt;/font&gt;" style="whiteSpace=wrap;html=1;strokeColor=#FFFFFF;fillColor=#000066;" parent="1" vertex="1">
                    <mxGeometry x="240" y="40" width="190" height="30" as="geometry"/>
                </mxCell>
                <mxCell id="5" value="&lt;font color=&quot;#ffffff&quot;&gt;EHR System&lt;/font&gt;" style="whiteSpace=wrap;html=1;strokeColor=#FFFFFF;fillColor=#000000;" parent="1" vertex="1">
                    <mxGeometry x="240" y="105" width="190" height="70" as="geometry"/>
                </mxCell>
                <mxCell id="6" value="&lt;font color=&quot;#ffffff&quot;&gt;Facade&lt;/font&gt;" style="whiteSpace=wrap;html=1;strokeColor=#FFFFFF;fillColor=#0074E6;" parent="1" vertex="1">
                    <mxGeometry x="240" y="72" width="190" height="30" as="geometry"/>
                </mxCell>
                <mxCell id="7" value="&lt;font color=&quot;#ffffff&quot;&gt;EHR System API&lt;/font&gt;" style="whiteSpace=wrap;html=1;strokeColor=#FFFFFF;fillColor=#000066;" parent="1" vertex="1">
                    <mxGeometry x="40" y="240" width="560" height="30" as="geometry"/>
                </mxCell>
                <mxCell id="8" value="&lt;font color=&quot;#ffffff&quot;&gt;EHR System&lt;/font&gt;" style="whiteSpace=wrap;html=1;strokeColor=#FFFFFF;fillColor=#000000;" parent="1" vertex="1">
                    <mxGeometry x="40" y="305" width="180" height="95" as="geometry"/>
                </mxCell>
                <mxCell id="9" value="&lt;font color=&quot;#ffffff&quot;&gt;Aggregator&lt;/font&gt;" style="whiteSpace=wrap;html=1;strokeColor=#FFFFFF;fillColor=#0074E6;" parent="1" vertex="1">
                    <mxGeometry x="40" y="272" width="560" height="30" as="geometry"/>
                </mxCell>
                <mxCell id="10" value="&lt;font color=&quot;#ffffff&quot;&gt;EHR System&lt;/font&gt;" style="whiteSpace=wrap;html=1;strokeColor=#FFFFFF;fillColor=#000000;" parent="1" vertex="1">
                    <mxGeometry x="230" y="305" width="180" height="95" as="geometry"/>
                </mxCell>
                <mxCell id="11" value="&lt;font color=&quot;#ffffff&quot;&gt;EHR System&lt;/font&gt;" style="whiteSpace=wrap;html=1;strokeColor=#FFFFFF;fillColor=#000000;" parent="1" vertex="1">
                    <mxGeometry x="420" y="338" width="180" height="62" as="geometry"/>
                </mxCell>
                <mxCell id="13" value="&lt;font color=&quot;#ffffff&quot;&gt;EHR System API&lt;/font&gt;" style="whiteSpace=wrap;html=1;strokeColor=#FFFFFF;fillColor=#000066;" parent="1" vertex="1">
                    <mxGeometry x="420" y="305" width="180" height="30" as="geometry"/>
                </mxCell>
                <mxCell id="14" value="&lt;font color=&quot;#ffffff&quot;&gt;EHR System API&lt;/font&gt;" style="whiteSpace=wrap;html=1;strokeColor=#FFFFFF;fillColor=#000066;" parent="1" vertex="1">
                    <mxGeometry x="40" y="473" width="560" height="30" as="geometry"/>
                </mxCell>
                <mxCell id="15" value="&lt;font color=&quot;#ffffff&quot;&gt;EHR System&lt;/font&gt;" style="whiteSpace=wrap;html=1;strokeColor=#FFFFFF;fillColor=#000000;" parent="1" vertex="1">
                    <mxGeometry x="40" y="573" width="180" height="95" as="geometry"/>
                </mxCell>
                <mxCell id="17" value="&lt;font color=&quot;#ffffff&quot;&gt;EHR System&lt;/font&gt;" style="whiteSpace=wrap;html=1;strokeColor=#FFFFFF;fillColor=#000000;" parent="1" vertex="1">
                    <mxGeometry x="230" y="573" width="180" height="95" as="geometry"/>
                </mxCell>
                <mxCell id="18" value="&lt;font color=&quot;#ffffff&quot;&gt;EHR System&lt;/font&gt;" style="whiteSpace=wrap;html=1;strokeColor=#FFFFFF;fillColor=#000000;" parent="1" vertex="1">
                    <mxGeometry x="420" y="606" width="180" height="62" as="geometry"/>
                </mxCell>
                <mxCell id="19" value="&lt;font color=&quot;#ffffff&quot;&gt;EHR System API&lt;/font&gt;" style="whiteSpace=wrap;html=1;strokeColor=#FFFFFF;fillColor=#000066;" parent="1" vertex="1">
                    <mxGeometry x="420" y="573" width="180" height="30" as="geometry"/>
                </mxCell>
                <mxCell id="21" value="&lt;font color=&quot;#ffffff&quot;&gt;Registry&lt;/font&gt;" style="whiteSpace=wrap;html=1;strokeColor=#FFFFFF;fillColor=#0074E6;" parent="1" vertex="1">
                    <mxGeometry x="40" y="507" width="560" height="30" as="geometry"/>
                </mxCell>
                <mxCell id="27" value="" style="endArrow=classic;startArrow=none;html=1;fillColor=#a20025;strokeColor=#6F0000;strokeWidth=3;endSize=3;startSize=3;startFill=0;" parent="1" edge="1">
                    <mxGeometry width="50" height="50" relative="1" as="geometry">
                        <mxPoint x="129.5" y="573" as="sourcePoint"/>
                        <mxPoint x="129.5" y="537" as="targetPoint"/>
                    </mxGeometry>
                </mxCell>
                <mxCell id="29" value="" style="endArrow=classic;startArrow=none;html=1;fillColor=#a20025;strokeColor=#6F0000;strokeWidth=3;endSize=3;startSize=3;startFill=0;" parent="1" edge="1">
                    <mxGeometry width="50" height="50" relative="1" as="geometry">
                        <mxPoint x="319.5" y="573" as="sourcePoint"/>
                        <mxPoint x="319.5" y="537" as="targetPoint"/>
                    </mxGeometry>
                </mxCell>
                <mxCell id="30" value="" style="endArrow=classic;startArrow=none;html=1;fillColor=#a20025;strokeColor=#6F0000;strokeWidth=3;endSize=3;startSize=3;startFill=0;" parent="1" edge="1">
                    <mxGeometry width="50" height="50" relative="1" as="geometry">
                        <mxPoint x="509.5" y="573" as="sourcePoint"/>
                        <mxPoint x="509.5" y="537" as="targetPoint"/>
                    </mxGeometry>
                </mxCell>
                <mxCell id="31" value="Text" style="text;html=1;align=center;verticalAlign=middle;whiteSpace=wrap;rounded=0;" parent="1" vertex="1">
                    <mxGeometry x="490" y="280" width="60" height="30" as="geometry"/>
                </mxCell>
                <mxCell id="32" value="&lt;font style=&quot;font-size: 12px;&quot;&gt;Standard&lt;/font&gt;" style="text;html=1;align=center;verticalAlign=middle;whiteSpace=wrap;rounded=0;" parent="1" vertex="1">
                    <mxGeometry x="100" y="10" width="60" height="30" as="geometry"/>
                </mxCell>
                <mxCell id="33" value="&lt;font style=&quot;font-size: 12px;&quot;&gt;Facade provides EHR System API&lt;/font&gt;" style="text;html=1;align=center;verticalAlign=middle;whiteSpace=wrap;rounded=0;" parent="1" vertex="1">
                    <mxGeometry x="240" y="10" width="190" height="30" as="geometry"/>
                </mxCell>
                <mxCell id="34" value="Aggregator provides EHR System API for multiple systems" style="text;html=1;align=center;verticalAlign=middle;whiteSpace=wrap;rounded=0;" parent="1" vertex="1">
                    <mxGeometry x="40" y="210" width="560" height="30" as="geometry"/>
                </mxCell>
                <mxCell id="35" value="Registry is used to store and preovide EHDS data" style="text;html=1;align=center;verticalAlign=middle;whiteSpace=wrap;rounded=0;" parent="1" vertex="1">
                    <mxGeometry x="40" y="443" width="560" height="30" as="geometry"/>
                </mxCell>
            </root>
        </mxGraphModel>
    </diagram>
</mxfile>